# xmcd CD Database Entry
#
# Track frame offsets:
# 150
# 13060
# 26612
# 40485
# 64060
# 80490
# 96620
# 110070
# 123377
# 146112
# 162810
# 174850
# 178867
#
# Disc length: 2785 seconds
#
# Revision: 2
# Processed by: cddbd v1.4PL0 Copyright (c) Steve Scherf et al.
# Submitted via: tcd 2.0b
#
DISCID=b60adf0d
DTITLE=After All - Transendent
DYEAR=1900
DGENRE=
TTITLE0=Sixteen, Black Sunday
TTITLE1=Behind the Mask (part I)
TTITLE2=The Force Within
TTITLE3=Darkest Rage
TTITLE4=Burn a Hole
TTITLE5=Damaged Trust
TTITLE6=The Last Sigh
TTITLE7=Selfdestruct
TTITLE8=On Forbidden Grounds
TTITLE9=The Avenger
TTITLE10=Visionary Thoughts
TTITLE11=June
TTITLE12=Behind the Mask (part II)
EXTD=
EXTT0=
EXTT1=
EXTT2=
EXTT3=
EXTT4=
EXTT5=
EXTT6=
EXTT7=
EXTT8=
EXTT9=
EXTT10=
EXTT11=
EXTT12=
PLAYORDER=
